<?xml version="1.0" encoding="utf-8"?>
<!-- Generator: Adobe Illustrator 23.1.0, SVG Export Plug-In . SVG Version: 6.00 Build 0)  -->
<svg version="1.1" id="Layer_1" xmlns="http://www.w3.org/2000/svg" xmlns:xlink="http://www.w3.org/1999/xlink" x="0px" y="0px"
	 viewBox="0 0 500 500" style="enable-background:new 0 0 500 500;" xml:space="preserve">
<style type="text/css">
	.st0{fill:#FFFFFF;}
</style>
<g>
	<circle class="st0" cx="250" cy="250" r="209.5"/>
	<path d="M250,41c28.22,0,55.59,5.53,81.35,16.42c24.89,10.53,47.24,25.6,66.43,44.79c19.19,19.19,34.26,41.55,44.79,66.43
		C453.47,194.41,459,221.78,459,250s-5.53,55.59-16.42,81.35c-10.53,24.89-25.6,47.24-44.79,66.43
		c-19.19,19.19-41.55,34.26-66.43,44.79C305.59,453.47,278.22,459,250,459s-55.59-5.53-81.35-16.42
		c-24.89-10.53-47.24-25.6-66.43-44.79c-19.19-19.19-34.26-41.55-44.79-66.43C46.53,305.59,41,278.22,41,250s5.53-55.59,16.42-81.35
		c10.53-24.89,25.6-47.24,44.79-66.43c19.19-19.19,41.55-34.26,66.43-44.79C194.41,46.53,221.78,41,250,41 M250,40
		C134.02,40,40,134.02,40,250s94.02,210,210,210s210-94.02,210-210S365.98,40,250,40L250,40z"/>
</g>
</svg>
